<svg width="706" height="256" viewBox="0 0 706 256" fill="none" xmlns="http://www.w3.org/2000/svg">
<path d="M159.496 167C159.496 170.733 159.496 174.067 159.496 177C159.763 179.933 159.896 182.867 159.896 185.8C159.363 199.667 156.296 210.067 150.696 217C145.363 223.933 135.63 227.667 121.496 228.2C119.363 228.2 116.296 227.933 112.296 227.4C108.296 226.867 105.763 225.8 104.696 224.2L103.896 223.8C104.43 224.067 105.096 222.2 105.896 218.2C106.963 214.2 107.763 206.6 108.296 195.4C108.83 184.2 109.096 168.733 109.096 149C109.096 129.267 108.563 103.8 107.496 72.6C107.763 69.6667 107.763 66.8667 107.496 64.2C107.23 61.2667 107.096 58.3333 107.096 55.4C105.23 57 103.096 59 100.696 61.4C98.2965 63.5333 96.0298 65.6667 93.8965 67.8C91.7632 69.9333 89.8965 72.0667 88.2965 74.2C86.9632 76.3333 86.4298 78.2 86.6965 79.8C86.6965 80.0667 86.4298 80.2 85.8965 80.2C85.3632 80.2 84.8298 80.2 84.2965 80.2C78.9632 80.7333 74.1632 79.4 69.8965 76.2C65.6298 73 63.8965 67.9333 64.6965 61C65.4965 53.5333 68.6965 46.7333 74.2965 40.6C80.1632 34.4667 87.2298 29.4 95.4965 25.4C103.763 21.1333 112.563 17.8 121.896 15.4C131.496 13 140.563 11.6667 149.096 11.4C176.03 10.3333 196.296 14.0667 209.896 22.6C223.763 30.8667 232.296 43 235.496 59C237.896 70.7333 237.63 81.8 234.696 92.2C231.763 102.6 226.83 111.667 219.896 119.4C212.963 126.867 204.163 132.6 193.496 136.6C183.096 140.6 171.496 142.067 158.696 141C158.696 145 158.696 149.267 158.696 153.8C158.963 158.067 159.23 162.467 159.496 167ZM157.896 113.8C158.963 114.067 160.696 114.067 163.096 113.8C167.363 113.267 171.363 111.4 175.096 108.2C178.83 105 181.896 101 184.296 96.2C186.696 91.4 188.163 86.0667 188.696 80.2C189.496 74.0667 188.963 67.8 187.096 61.4C185.496 56.0667 181.763 52.2 175.896 49.8C170.296 47.1333 164.03 47.1333 157.096 49.8C156.03 56.2 155.63 61.5333 155.896 65.8C156.163 70.0667 156.296 73.9333 156.296 77.4L157.896 113.8ZM289.519 78.2C299.119 78.7333 307.252 80.8667 313.919 84.6C320.586 88.3333 325.919 93 329.919 98.6C334.186 104.2 337.252 110.467 339.119 117.4C340.986 124.067 342.186 130.733 342.719 137.4C343.252 146.733 342.186 155.667 339.519 164.2C337.119 172.467 333.252 179.8 327.919 186.2C322.852 192.6 316.586 197.667 309.119 201.4C301.652 205.133 293.386 206.733 284.319 206.2C270.186 205.4 258.986 201.533 250.719 194.6C242.452 187.4 236.586 177.8 233.119 165.8C230.186 155.4 229.652 145 231.519 134.6C233.386 123.933 236.986 114.467 242.319 106.2C247.652 97.6667 254.319 90.8667 262.319 85.8C270.586 80.4667 279.652 77.9333 289.519 78.2ZM286.719 109.8C284.852 109.8 283.252 111.533 281.919 115C280.586 118.2 279.519 122.333 278.719 127.4C278.186 132.467 277.786 137.933 277.519 143.8C277.519 149.4 277.786 154.733 278.319 159.8C278.852 164.867 279.652 169.133 280.719 172.6C282.052 175.8 283.519 177.4 285.119 177.4C287.786 177.4 290.186 173.933 292.319 167C294.452 160.067 295.652 152.333 295.919 143.8C296.452 135.267 296.052 127.533 294.719 120.6C293.386 113.4 290.719 109.8 286.719 109.8ZM447.084 167.4C446.817 177 444.284 184.467 439.484 189.8C434.684 195.133 429.217 199.133 423.084 201.8C417.217 204.2 411.484 205.533 405.884 205.8C400.551 206.333 397.084 206.6 395.484 206.6C384.284 206.6 375.351 205.267 368.684 202.6C362.017 199.933 356.817 197 353.084 193.8C349.617 190.333 347.351 187 346.284 183.8C345.217 180.333 344.551 177.933 344.284 176.6C343.217 171.267 344.817 167 349.084 163.8C353.351 160.6 358.151 158.467 363.484 157.4C369.084 156.067 374.017 155.8 378.284 156.6C382.817 157.4 384.684 159.133 383.884 161.8C383.351 163.667 383.217 165.8 383.484 168.2C383.751 170.6 384.284 172.867 385.084 175C385.884 176.867 387.084 178.6 388.684 180.2C390.284 181.533 392.284 182.2 394.684 182.2C395.217 182.2 396.417 181.533 398.284 180.2C400.417 178.867 400.951 175.4 399.884 169.8C399.084 166.067 396.151 162.2 391.084 158.2C386.284 154.2 380.951 149.933 375.084 145.4C369.484 140.867 364.284 135.933 359.484 130.6C354.951 125.267 352.684 119.267 352.684 112.6C352.684 108.067 353.617 103.533 355.484 99C357.351 94.4667 360.284 90.4667 364.284 87C368.284 83.2667 373.484 80.3333 379.884 78.2C386.551 76.0667 394.551 75 403.884 75C408.151 75 412.284 75.6667 416.284 77C420.551 78.0667 424.284 79.6667 427.484 81.8C430.951 83.9333 433.751 86.6 435.884 89.8C438.284 92.7333 439.751 96.0667 440.284 99.8C441.084 104.867 440.284 108.6 437.884 111C435.484 113.4 432.817 114.733 429.884 115C426.951 115.267 424.284 114.867 421.884 113.8C419.484 112.467 418.551 110.733 419.084 108.6C419.884 105.667 419.484 103.533 417.884 102.2C416.284 100.867 414.284 100.2 411.884 100.2C409.751 99.9333 407.617 100.333 405.484 101.4C403.617 102.467 402.684 103.933 402.684 105.8C402.684 107.667 403.084 109 403.884 109.8C404.684 110.6 406.951 112.067 410.684 114.2C413.084 116.067 416.284 118.733 420.284 122.2C424.551 125.667 428.684 129.8 432.684 134.6C436.684 139.133 440.017 144.2 442.684 149.8C445.617 155.4 447.084 161.267 447.084 167.4ZM505.571 63C505.038 73.9333 504.505 86.0667 503.971 99.4C503.438 112.733 503.171 125.667 503.171 138.2C503.171 149.4 503.171 159.8 503.171 169.4C503.171 179 504.105 185.8 505.971 189.8L509.571 197.4C510.905 200.333 509.705 202.467 505.971 203.8C502.505 205.133 497.171 205.533 489.971 205C485.438 204.733 481.171 203.8 477.171 202.2C473.438 200.6 469.971 197.933 466.771 194.2C463.838 190.2 461.438 185 459.571 178.6C457.971 171.933 457.171 163.4 457.171 153V150.2C457.171 149.933 457.171 149.133 457.171 147.8C457.171 146.2 457.171 142.867 457.171 137.8C457.438 132.733 457.705 125.133 457.971 115C458.505 104.867 459.038 90.7333 459.571 72.6C454.238 73.1333 448.771 72.7333 443.171 71.4C437.838 69.8 433.438 67.1333 429.971 63.4C427.038 60.4667 425.038 57.6667 423.971 55C422.905 52.3333 422.505 50.0667 422.771 48.2C423.038 46.0667 423.705 44.6 424.771 43.8C426.105 43 427.705 42.8667 429.571 43.4C433.571 44.7333 437.438 45.9333 441.171 47C445.171 47.8 449.971 47.6667 455.571 46.6C457.171 46.6 458.771 46.3333 460.371 45.8L459.971 30.6C459.971 25.8 459.705 22.0667 459.171 19.4C458.905 16.7333 458.638 14.6 458.371 13C458.105 11.4 458.105 10.3333 458.371 9.8C458.905 9.26667 460.105 8.86667 461.971 8.6C473.971 6.46667 483.305 7.13333 489.971 10.6C496.638 14.0667 501.171 19.9333 503.571 28.2C514.771 22.6 526.371 17.4 538.371 12.6C550.638 7.53334 564.505 5.00001 579.971 5.00001C587.438 5.26667 593.705 6.2 598.771 7.8C604.105 9.13334 608.371 10.8667 611.571 13C614.771 14.8667 617.171 17 618.771 19.4C620.638 21.8 621.838 24.2 622.371 26.6C623.438 29.8 623.705 33.2667 623.171 37C622.905 40.4667 621.705 43.8 619.571 47C617.705 50.2 614.905 53 611.171 55.4C607.705 57.8 603.305 59.1333 597.971 59.4C596.371 58.8667 595.571 58.4667 595.571 58.2C595.038 57.1333 594.371 55.6667 593.571 53.8C593.038 51.9333 591.705 50.2 589.571 48.6C587.705 47 584.905 45.5333 581.171 44.2C577.438 42.8667 572.371 42.2 565.971 42.2C556.638 41.6667 546.771 43 536.371 46.2C525.971 49.4 515.838 53 505.971 57L505.571 63ZM601.164 79.8C606.764 79.2667 611.83 81 616.364 85C620.897 89 623.164 96.0667 623.164 106.2C623.164 113.133 621.297 120.067 617.564 127C613.83 133.667 609.297 140.067 603.964 146.2C598.897 152.333 593.697 158.067 588.364 163.4C583.03 168.467 578.764 173 575.564 177C583.83 175.667 592.097 174.467 600.364 173.4C608.63 172.067 614.764 171.8 618.764 172.6C622.23 173.4 624.764 175.133 626.364 177.8C628.23 180.2 629.297 183 629.564 186.2C629.83 189.4 629.564 192.733 628.764 196.2C627.964 199.4 626.897 201.933 625.564 203.8C625.564 203 622.097 202.6 615.164 202.6C608.23 202.333 599.964 202.2 590.364 202.2C580.764 202.2 570.897 202.333 560.764 202.6C550.897 202.867 543.03 203 537.164 203C531.03 203 525.83 202.2 521.564 200.6C517.297 199 515.164 195.133 515.164 189C515.164 188.2 515.03 187.133 514.764 185.8C514.764 184.2 515.83 181.4 517.964 177.4C520.097 173.4 523.964 167.667 529.564 160.2C535.164 152.733 543.697 142.6 555.164 129.8L576.764 107C564.764 109.933 555.697 111.667 549.564 112.2C543.43 112.467 539.697 112.6 538.364 112.6C533.83 112.6 530.097 111.267 527.164 108.6C524.497 105.667 522.63 102.333 521.564 98.6C520.497 94.8667 520.23 91.1333 520.764 87.4C521.297 83.6667 522.497 81 524.364 79.4C531.564 80.2 538.097 80.7333 543.964 81C550.097 81.2667 556.097 81.4 561.964 81.4C567.83 81.4 573.83 81.2667 579.964 81C586.364 80.7333 593.43 80.3333 601.164 79.8Z" fill="url(#paint0_linear_227_173)"/>
<defs>
<linearGradient id="paint0_linear_227_173" x1="134.99" y1="84.2667" x2="251.036" y2="332.952" gradientUnits="userSpaceOnUse">
<stop stop-color="#F48952"/>
<stop offset="0.51" stop-color="#E42A82"/>
<stop offset="1" stop-color="#CC30F3"/>
</linearGradient>
</defs>
</svg>
