<svg width="44" height="44" viewBox="0 0 44 44" fill="none" xmlns="http://www.w3.org/2000/svg">
<path d="M33.2233 44H10.7767C4.84985 44 0 39.1502 0 33.2233V10.7767C0 4.84985 4.84985 0 10.7767 0H33.2266C39.1502 0 44 4.84985 44 10.7767V33.2266C44 39.1502 39.1502 44 33.2233 44Z" fill="url(#paint0_linear_38_4638)"/>
<path d="M13.4 30.0144C11.8961 29.4332 11.1474 27.7028 11.7385 26.1628L15.9743 15.1431C16.5653 13.6064 18.2794 12.8216 19.7865 13.4028C21.2904 13.984 22.0391 15.7144 21.448 17.2544L17.2122 28.2741C16.6212 29.8108 14.9071 30.5956 13.4 30.0144Z" fill="#B9E7E1"/>
<path d="M22.998 30.5105C21.3825 30.2675 20.2628 28.7472 20.5058 27.1317L23.09 10.0078C23.333 8.39228 24.8533 7.27257 26.4688 7.51556C28.0843 7.75854 29.204 9.27884 28.961 10.8944L26.3768 28.0182C26.1339 29.6338 24.6136 30.7568 22.998 30.5105Z" fill="#B9E7E1"/>
<path d="M14.8747 30.6942C13.2362 31.2491 11.4433 30.3658 10.8884 28.7273L8.86899 22.7742C8.31406 21.1357 9.19735 19.3429 10.8359 18.7879C12.4744 18.233 14.2672 19.1163 14.8221 20.7548L16.8415 26.7079C17.3965 28.3464 16.5132 30.1393 14.8747 30.6942Z" fill="white"/>
<path d="M24.0625 30.8028C22.424 31.3577 20.6312 30.4744 20.0762 28.8359L16.0965 17.1004C15.5416 15.4619 16.4249 13.669 18.0634 13.1141C19.7019 12.5592 21.4947 13.4425 22.0497 15.081L26.0326 26.8165C26.5843 28.455 25.701 30.2478 24.0625 30.8028Z" fill="white"/>
<path d="M33.1639 30.6551C31.5254 31.21 29.7325 30.3267 29.1776 28.6882L23.2606 11.2556C22.7057 9.61714 23.5889 7.8243 25.2275 7.26938C26.866 6.71445 28.6588 7.59774 29.2137 9.23624L35.1275 26.6688C35.6857 28.304 34.7991 30.1001 33.1639 30.6551Z" fill="white"/>
<defs>
<linearGradient id="paint0_linear_38_4638" x1="3.16531" y1="40.8347" x2="40.8347" y2="3.1653" gradientUnits="userSpaceOnUse">
<stop offset="0.1" stop-color="#00D0CD"/>
<stop offset="0.9" stop-color="#4D60F2"/>
</linearGradient>
</defs>
</svg>
