<svg width="186" height="66" viewBox="0 0 186 66" fill="none" xmlns="http://www.w3.org/2000/svg">
<g clip-path="url(#clip0_414_6887)">
<g clip-path="url(#clip1_414_6887)">
<path d="M18.07 65.93C8.27999 65.93 -6.58957e-06 57.84 -6.58957e-06 48.26V24.33C-0.150007 17.9 2.21999 11.82 6.69999 7.21C11.21 2.56 17.26 0 23.73 0H24.46C33.11 0 40.95 4.66 45.12 12.07H48.59C55.02 12.07 60.26 17.3 60.26 23.74V47.87C60.26 57.83 52.16 65.94 42.19 65.94H18.06L18.07 65.93Z" fill="white"/>
</g>
<path d="M42.2848 58.0052C47.8461 58.0052 52.3753 53.4797 52.3753 47.923V45.6603C49.8101 48.2834 46.2328 49.9254 42.2848 49.9254H18.1056C14.1476 49.9254 10.5804 48.2834 8.01514 45.6603V48.3235C8.01514 53.5698 12.6345 58.0052 18.1056 58.0052H42.2848Z" fill="url(#paint0_linear_414_6887)"/>
<path d="M42.2848 45.9206C47.8461 45.9206 52.3753 41.3951 52.3753 35.8384V33.5757C49.8101 36.1988 46.2328 37.8408 42.2848 37.8408H18.1056C14.1777 37.8408 10.5904 36.1888 8.01514 33.5757V35.8384C8.01514 41.3951 12.5443 45.9206 18.1056 45.9206H42.2848Z" fill="url(#paint1_linear_414_6887)"/>
<path d="M41.3428 18.087C38.968 11.0585 32.3345 6.00244 24.5186 6.00244H23.7871C13.7868 6.00244 5.71037 14.2524 6.021 24.3045C6.21139 30.7623 11.6424 35.8384 18.1056 35.8384H42.2847C48.9583 35.8384 54.3793 30.4319 54.3793 23.7539C54.3793 20.6201 51.8341 18.077 48.6978 18.077H41.3428V18.087Z" fill="white"/>
<path d="M18.1156 22.272C19.2179 22.272 20.1197 21.371 20.1197 20.2696C20.1197 19.1683 19.2179 18.2672 18.1156 18.2672C17.0134 18.2672 16.1116 19.1683 16.1116 20.2696C16.1116 21.371 17.0134 22.272 18.1156 22.272Z" fill="#002BB8"/>
<path d="M48.6978 16.0846H42.7257C39.6494 8.79579 32.5049 4 24.5086 4H23.7772C18.3862 4 13.3459 6.13257 9.58831 9.99724C5.85071 13.8519 3.86668 18.928 4.00696 24.3045V48.3135C4.00696 55.7324 10.4501 62 18.0956 62H42.2748C50.0506 62 56.3734 55.6824 56.3734 47.913V23.7538C56.3734 19.5187 52.9264 16.0746 48.6878 16.0746L48.6978 16.0846ZM12.4642 12.7906C15.4602 9.70689 19.4784 8.00483 23.7772 8.00483H24.5086C31.2724 8.00483 37.2746 12.31 39.439 18.7278L39.8999 20.0894H48.6978C50.2911 20.0894 51.6338 21.1107 52.1448 22.5324C49.1287 22.192 45.1907 23.033 41.1124 23.914C38.3267 24.5148 35.4509 25.1455 33.9077 25.0354C30.6712 24.8251 29.8295 22.4723 29.7493 22.202L25.9015 23.3333C25.9616 23.5536 27.4847 28.6397 33.6472 29.0402C33.8376 29.0502 34.038 29.0602 34.2384 29.0602C36.2926 29.0602 39.0482 28.4695 41.9641 27.8388C44.9702 27.188 49.6498 26.1868 51.9845 26.5472C50.772 30.7523 46.8941 33.846 42.2948 33.846H18.1056C12.7046 33.846 8.18546 29.5408 8.02513 24.2544C7.89487 19.9493 9.47808 15.8843 12.4642 12.8006V12.7906ZM52.3753 47.923C52.3753 53.4797 47.8461 58.0052 42.2848 58.0052H18.1056C12.6345 58.0052 8.01511 53.5698 8.01511 48.3235V45.6603C10.5803 48.2834 14.1476 49.9254 18.1056 49.9254H42.2848C46.2328 49.9254 49.8101 48.2834 52.3753 45.6603V47.923ZM52.3753 35.8384C52.3753 41.3951 47.8461 45.9206 42.2848 45.9206H18.1056C12.5443 45.9206 8.01511 41.3951 8.01511 35.8384V33.5757C10.5903 36.1889 14.1776 37.8408 18.1056 37.8408H42.2848C46.2328 37.8408 49.8101 36.1989 52.3753 33.5757V35.8384Z" fill="#002BB8"/>
<path d="M104.211 23.4435C102.427 23.4435 100.874 23.8139 99.5512 24.5548C98.2285 25.2957 97.1964 26.347 96.4649 27.7287C95.7334 29.1103 95.3727 30.7523 95.3727 32.6746V33.816C95.3727 36.7395 96.1543 39.0223 97.7074 40.6442C99.2706 42.2662 101.395 43.0772 104.1 43.0772C105.884 43.0772 107.437 42.7067 108.76 41.9558C110.083 41.2049 111.115 40.1436 111.846 38.762C112.578 37.3803 112.938 35.7383 112.938 33.816V32.6746C112.938 29.7511 112.167 27.4784 110.614 25.8664C109.071 24.2545 106.926 23.4535 104.211 23.4535V23.4435ZM108.189 33.776C108.189 35.488 107.838 36.7796 107.147 37.6506C106.455 38.5217 105.453 38.9522 104.141 38.9522C102.898 38.9522 101.926 38.5117 101.205 37.6306C100.483 36.7495 100.132 35.498 100.132 33.8761V32.6946C100.132 30.9826 100.483 29.691 101.174 28.84C101.866 27.979 102.868 27.5484 104.181 27.5484C105.493 27.5484 106.455 27.979 107.157 28.84C107.848 29.701 108.199 30.9425 108.199 32.5845V33.7559L108.189 33.776Z" fill="white"/>
<path d="M130.113 24.4447C128.961 23.7739 127.668 23.4435 126.235 23.4435C125.093 23.4435 124.061 23.6437 123.129 24.0342C122.197 24.4347 121.386 24.9954 120.694 25.7463C120.694 25.7463 120.694 25.7463 120.694 25.7362C120.373 24.685 119.341 24.0042 118.249 24.0042H116.616V50.5762H121.365V42.2662C122.037 42.5165 122.728 42.7167 123.45 42.8569C124.171 42.9971 124.903 43.0772 125.644 43.0772C127.398 43.0772 128.891 42.6567 130.103 41.8157C131.316 40.9746 132.248 39.8333 132.889 38.3815C133.53 36.9298 133.851 35.2978 133.851 33.5056V32.5445C133.851 30.502 133.52 28.7999 132.849 27.4583C132.177 26.1167 131.266 25.1155 130.123 24.4447H130.113ZM129.091 33.7559C129.091 35.3278 128.73 36.5893 128.009 37.5305C127.288 38.4816 126.265 38.9522 124.923 38.9522C124.402 38.9522 123.841 38.8821 123.249 38.752C122.658 38.6118 122.027 38.4416 121.355 38.2213V31.7735C121.355 30.8624 121.526 30.1015 121.857 29.4908C122.187 28.88 122.648 28.3995 123.229 28.0691C123.81 27.7387 124.462 27.5685 125.183 27.5685C126.396 27.5685 127.348 27.999 128.039 28.84C128.73 29.691 129.081 30.9325 129.081 32.5845V33.7659L129.091 33.7559Z" fill="white"/>
<path d="M151.176 24.5148C150.124 23.8039 148.791 23.4435 147.188 23.4435C146.276 23.4435 145.394 23.6137 144.553 23.9441C143.711 24.2745 142.969 24.7651 142.328 25.4058V15.0533H137.578V42.5165H142.328V32.0939C142.328 31.1828 142.488 30.3818 142.789 29.701C143.09 29.0202 143.531 28.4896 144.072 28.1191C144.613 27.7487 145.274 27.5684 146.036 27.5684C147.178 27.5684 148.05 27.9589 148.651 28.7499C149.262 29.5308 149.563 30.6622 149.563 32.134V42.5265H154.313V31.2729C154.313 29.8212 154.052 28.5096 153.531 27.3382C153.01 26.1668 152.228 25.2256 151.176 24.5148Z" fill="white"/>
<path d="M162.038 15.2836C161.247 15.2836 160.585 15.5539 160.074 16.1046C159.553 16.6452 159.293 17.296 159.293 18.0369C159.293 18.7778 159.543 19.4286 160.054 19.9892C160.565 20.5499 161.217 20.8203 162.008 20.8203C162.8 20.8203 163.491 20.5399 164.012 19.9892C164.533 19.4286 164.794 18.7778 164.794 18.0369C164.794 17.296 164.543 16.6552 164.032 16.1046C163.521 15.5639 162.86 15.2836 162.048 15.2836H162.038Z" fill="white"/>
<path d="M156.547 24.0743C156.547 25.8965 157.85 27.4884 159.643 27.7787C159.643 27.7787 159.653 27.7787 159.663 27.7787V42.5165H164.413V23.844H156.537V24.0643L156.547 24.0743Z" fill="white"/>
<path d="M184.925 27.3382C184.404 26.1668 183.622 25.2256 182.57 24.5148C181.518 23.8039 180.185 23.4435 178.582 23.4435C177.49 23.4435 176.478 23.6637 175.536 24.1143C174.594 24.5648 173.792 25.1956 173.121 26.0066C173.121 26.0066 173.121 26.0066 173.121 25.9966C172.7 24.7851 171.507 24.0042 170.225 24.0042H168.962V42.5265H173.712V32.1039C173.712 31.1928 173.872 30.3919 174.173 29.711C174.473 29.0302 174.914 28.4996 175.455 28.1291C175.997 27.7587 176.658 27.5785 177.419 27.5785C178.562 27.5785 179.434 27.9689 180.035 28.7599C180.646 29.5408 180.947 30.6722 180.947 32.144V42.5365H185.696V31.2829C185.696 29.8312 185.436 28.5196 184.915 27.3482L184.925 27.3382Z" fill="white"/>
<path d="M95.3727 24.0742C93.8596 23.874 92.3265 23.7238 90.7633 23.6137C89.6009 23.5336 87.3564 23.4835 85.683 23.4535C85.5828 23.4535 85.4926 23.4435 85.4024 23.4435H82.0957C80.4123 23.4435 78.9894 23.7038 77.8471 24.2144C76.6947 24.735 75.833 25.4459 75.2518 26.357C74.6706 27.2681 74.38 28.3194 74.38 29.5308C74.38 31.323 75.0213 32.7848 76.3139 33.9261C77.5965 35.0575 79.5205 35.6182 82.0756 35.6182H85.4225C87.156 35.6182 88.5889 35.3579 89.7312 34.8472C90.8735 34.3366 91.7253 33.6158 92.3165 32.6946C92.8977 31.7735 93.1882 30.7223 93.1882 29.5408C93.1882 28.6798 93.0379 27.8989 92.7473 27.188C94.2504 26.9477 95.3927 25.6562 95.3927 24.0843L95.3727 24.0742ZM87.7572 31.323C87.1259 31.7635 86.204 31.9838 84.9916 31.9838H82.5366C81.2941 31.9838 80.3722 31.7635 79.7509 31.323C79.1297 30.8825 78.819 30.2717 78.819 29.4908C78.819 28.7098 79.1297 28.1091 79.7509 27.6786C80.3722 27.2481 81.284 27.0378 82.4965 27.0378H84.9816C85.8032 27.0378 86.4746 27.1379 87.0257 27.3282C87.5668 27.5184 87.9877 27.7987 88.2682 28.1692C88.5488 28.5296 88.6991 28.9902 88.6991 29.5208C88.6991 30.2717 88.3885 30.8724 87.7472 31.313L87.7572 31.323Z" fill="white"/>
<path d="M87.7572 38.8021C87.1259 39.2426 86.2041 39.4628 84.9916 39.4628H82.5366C81.2941 39.4628 80.3722 39.2426 79.7509 38.8021C79.1397 38.3715 78.8391 37.7708 78.8291 37.0099H74.37C74.37 38.8021 75.0113 40.2638 76.3039 41.3952C77.5865 42.5265 79.5104 43.0872 82.0656 43.0872H85.4124C87.146 43.0872 88.5789 42.8269 89.7212 42.3163C90.8635 41.8057 91.7153 41.0848 92.3065 40.1637C92.8876 39.2426 93.1782 38.1913 93.1782 37.0099H88.7192C88.7192 37.7608 88.4085 38.3615 87.7672 38.8021H87.7572Z" fill="white"/>
<path d="M87.7572 46.5914C87.1259 47.0319 86.2041 47.2522 84.9916 47.2522H82.5366C81.2941 47.2522 80.3722 47.0319 79.7509 46.5914C79.1397 46.1608 78.8391 45.5601 78.8291 44.7992H74.37C74.37 46.5914 75.0113 48.0531 76.3039 49.1845C77.5865 50.3159 79.5104 50.8765 82.0656 50.8765H85.4124C87.146 50.8765 88.5789 50.6162 89.7212 50.1056C90.8635 49.595 91.7153 48.8741 92.3065 47.953C92.8876 47.0319 93.1782 45.9806 93.1782 44.7992H88.7192C88.7192 45.5501 88.4085 46.1508 87.7672 46.5914H87.7572Z" fill="white"/>
</g>
<defs>
<linearGradient id="paint0_linear_414_6887" x1="30.1906" y1="58.0052" x2="30.1906" y2="33.5757" gradientUnits="userSpaceOnUse">
<stop stop-color="#00BEC2"/>
<stop offset="0.67" stop-color="#4FEAFF"/>
</linearGradient>
<linearGradient id="paint1_linear_414_6887" x1="30.1906" y1="58.0052" x2="30.1906" y2="33.5757" gradientUnits="userSpaceOnUse">
<stop stop-color="#00BEC2"/>
<stop offset="0.67" stop-color="#4FEAFF"/>
</linearGradient>
<clipPath id="clip0_414_6887">
<rect width="185.696" height="65.93" fill="white"/>
</clipPath>
<clipPath id="clip1_414_6887">
<rect width="60.27" height="65.93" fill="white"/>
</clipPath>
</defs>
</svg>
