<svg width="156" height="32" viewBox="0 0 156 32" fill="none" xmlns="http://www.w3.org/2000/svg">
<path d="M2.42201 21.6737L3.70084 18.868C4.31107 19.1557 4.94916 19.3815 5.60543 19.5417C6.18093 19.6991 6.77354 19.7868 7.37037 19.8029C7.77676 19.8108 8.18007 19.731 8.55222 19.5693C8.69428 19.5262 8.81966 19.4412 8.91152 19.3257C9.00339 19.2101 9.05739 19.0695 9.06623 18.9228C9.04819 18.7774 8.99432 18.6387 8.90946 18.5187C8.82459 18.3987 8.71122 18.3012 8.57938 18.2347C8.16081 17.9716 7.70704 17.768 7.23132 17.6297C6.03067 17.2503 4.9031 16.6738 3.89555 15.9244C3.48525 15.6277 3.15249 15.2382 2.92524 14.7884C2.698 14.3386 2.58277 13.8415 2.58911 13.3387C2.56559 12.7369 2.68994 12.1385 2.95137 11.5947C3.2128 11.0508 3.60361 10.5778 4.09026 10.2162C5.09075 9.45553 6.46208 9.07498 8.20428 9.07458C9.03521 9.09181 9.861 9.20731 10.6642 9.41863C11.5197 9.61202 12.3278 9.97205 13.0412 10.4777L11.7901 13.2836C10.7128 12.7677 9.53953 12.4773 8.34363 12.4307C7.97531 12.4166 7.61004 12.5023 7.28726 12.6784C7.1659 12.736 7.06288 12.8255 6.98937 12.9371C6.91585 13.0486 6.87469 13.178 6.87038 13.3112C6.87038 13.6048 7.45417 13.9532 8.62175 14.3565C11.7164 15.4203 13.2637 16.9062 13.2639 18.8142C13.2639 20.1904 12.7868 21.254 11.8325 22.0051C10.8781 22.7563 9.48364 23.1322 7.64893 23.133C6.73968 23.111 5.83559 22.9906 4.9528 22.774C4.03685 22.5986 3.17213 22.2226 2.42201 21.6737Z" fill="#4935C3"/>
<path d="M16.6548 13.6135L15.4872 10.3124C16.2886 9.91525 17.1389 9.62358 18.0168 9.44484C18.9632 9.21321 19.9331 9.08856 20.9079 9.07326C21.9475 9.05305 22.9769 9.27946 23.91 9.73354C24.7502 10.1451 25.4508 10.7905 25.9256 11.5905C26.4073 12.4228 26.6523 13.3687 26.6345 14.3276V22.828H24.2159L23.1881 21.4252C22.1876 22.5621 21.0848 23.1305 19.88 23.1305C18.249 23.1305 17.0166 22.7316 16.1828 21.9338C15.349 21.136 14.932 20.049 14.9318 18.6728C14.9318 17.3166 15.3954 16.2987 16.3225 15.6192C17.2497 14.9396 18.5194 14.6006 20.1318 14.602H22.2445C22.2403 14.0921 22.0359 13.6039 21.6746 13.2404C21.2976 12.9072 20.8032 12.7343 20.2984 12.7591C19.6791 12.7698 19.0632 12.8529 18.4636 13.0068C17.8422 13.1503 17.2363 13.3535 16.6548 13.6135ZM18.6008 18.6474C18.5991 18.8066 18.6304 18.9644 18.6928 19.1111C18.7552 19.2578 18.8474 19.3903 18.9636 19.5003C19.0881 19.6208 19.2362 19.7147 19.3987 19.7765C19.5612 19.8382 19.7348 19.8664 19.9087 19.8593C20.8033 19.826 21.65 19.4514 22.2717 18.814V17.1895H20.1587C19.9528 17.1807 19.7471 17.2127 19.5538 17.2835C19.3605 17.3544 19.1833 17.4627 19.0328 17.6021C18.8909 17.7367 18.7792 17.8993 18.7047 18.0794C18.6302 18.2594 18.5947 18.4529 18.6005 18.6474H18.6008Z" fill="#4935C3"/>
<path d="M33.309 22.8317L28.3609 10.1766L32.4749 8.99402L35.3667 17.3035L38.1481 9.49094H42.5677L37.2583 22.8341L33.309 22.8317Z" fill="#4935C3"/>
<path d="M46.4463 7.75544C46.1324 7.75839 45.8212 7.69766 45.532 7.577C45.2427 7.45634 44.9815 7.2783 44.7645 7.05387C44.5378 6.83907 44.3579 6.58058 44.236 6.29434C44.1141 6.0081 44.0528 5.70018 44.0559 5.38958C44.051 5.07463 44.1113 4.76204 44.2331 4.47106C44.355 4.18009 44.5359 3.91691 44.7645 3.69775C44.9816 3.47338 45.2428 3.2954 45.5321 3.17479C45.8213 3.05418 46.1325 2.9935 46.4463 2.99649C46.7646 2.99162 47.0805 3.05134 47.3745 3.17194C47.6685 3.29255 47.9345 3.4715 48.156 3.69775C48.3847 3.91689 48.5655 4.18007 48.6874 4.47104C48.8094 4.76201 48.8698 5.07462 48.8649 5.38958C48.8679 5.7002 48.8066 6.00813 48.6846 6.29437C48.5627 6.58062 48.3828 6.8391 48.156 7.05387C47.9346 7.28019 47.6686 7.45921 47.3746 7.57987C47.0805 7.70053 46.7646 7.76028 46.4463 7.75544ZM44.278 22.9403V9.59714H48.6424V22.9403H44.278Z" fill="#4935C3"/>
<path d="M55.8888 22.8311H51.5244V9.488H54.2208L54.9716 10.8908C55.7956 10.3364 56.6877 9.88813 57.6263 9.55681C58.4933 9.23376 59.4103 9.06169 60.3366 9.04822C62.0042 9.04822 63.2135 9.52051 63.9645 10.4651C64.7155 11.4097 65.0908 12.6979 65.0904 14.3298V22.8302H60.726V14.661C60.755 14.1214 60.6088 13.5867 60.3088 13.1352C60.1637 12.9461 59.9736 12.7956 59.7553 12.6972C59.537 12.5988 59.2974 12.5555 59.0581 12.5713C58.2797 12.5713 57.2234 12.9564 55.8891 13.7267L55.8888 22.8311Z" fill="#4935C3"/>
<path d="M80.727 9.40601V23.2425C80.7504 24.3367 80.4352 25.412 79.8236 26.3239C79.1886 27.2303 78.2997 27.933 77.2662 28.3458C76.0535 28.834 74.7529 29.0727 73.4439 29.047C72.4496 29.0135 71.4618 28.8752 70.4971 28.6345C69.4637 28.4345 68.475 28.0525 67.5782 27.5066L68.8845 24.4807C70.2157 25.1717 71.6904 25.5484 73.1932 25.5811C74.0086 25.6188 74.8141 25.3918 75.487 24.9346C75.7649 24.7415 75.9903 24.4836 76.1432 24.1837C76.2962 23.8837 76.3719 23.5511 76.3638 23.2152V22.4724C75.5874 22.8264 74.7442 23.0139 73.8895 23.0226C71.795 23.0226 70.127 22.4173 68.8857 21.2069C67.6443 19.9964 67.0236 18.2818 67.0234 16.0629C67.0234 13.8442 67.6534 12.1066 68.9135 10.8501C70.1736 9.5936 71.8879 8.96533 74.0564 8.96533C74.7135 8.97061 75.364 9.0966 75.9746 9.3369C76.6315 9.58952 77.2419 9.94732 77.7813 10.396L78.5042 9.40571L80.727 9.40601ZM76.3629 18.8147V13.1196C75.7481 12.6782 75.0094 12.4376 74.2499 12.4315C73.864 12.4236 73.4821 12.5098 73.1379 12.6825C72.7936 12.8552 72.4976 13.1091 72.276 13.4218C71.7436 14.1883 71.4801 15.1064 71.5257 16.0354C71.5257 17.1357 71.7758 18.0022 72.276 18.6349C72.5218 18.9466 72.8394 19.1954 73.2024 19.3605C73.5654 19.5256 73.963 19.6022 74.362 19.5839C75.0937 19.5401 75.7933 19.2712 76.3629 18.8147Z" fill="#4935C3"/>
<path d="M83.0219 21.6737L84.3008 18.868C84.911 19.1558 85.5491 19.3815 86.2054 19.5417C86.7809 19.6991 87.3736 19.7868 87.9704 19.8029C88.3768 19.8108 88.7801 19.731 89.1522 19.5693C89.2943 19.5262 89.4197 19.4412 89.5115 19.3257C89.6034 19.2101 89.6573 19.0695 89.6662 18.9228C89.6482 18.7774 89.5944 18.6387 89.5096 18.5187C89.4248 18.3987 89.3115 18.3012 89.1797 18.2347C88.7612 17.9717 88.3074 17.768 87.8317 17.6297C86.6309 17.2503 85.5031 16.6739 84.4955 15.9244C84.0851 15.6278 83.7525 15.2383 83.5252 14.7884C83.298 14.3386 83.1828 13.8416 83.1892 13.3387C83.1657 12.7369 83.2899 12.1385 83.5514 11.5947C83.8128 11.0508 84.2036 10.5779 84.6902 10.2162C85.6909 9.45553 87.0623 9.07498 88.8043 9.07458C89.6353 9.0918 90.4613 9.2073 91.2646 9.41863C92.1201 9.61202 92.9281 9.97204 93.6415 10.4777L92.3907 13.2836C91.3134 12.7677 90.1401 12.4773 88.9442 12.4307C88.576 12.4166 88.2109 12.5022 87.8882 12.6784C87.7668 12.736 87.6638 12.8255 87.5902 12.937C87.5167 13.0486 87.4755 13.178 87.4713 13.3112C87.4713 13.6048 88.055 13.9532 89.2223 14.3565C92.3169 15.4203 93.8643 16.9062 93.8645 18.8142C93.8645 20.1904 93.3874 21.254 92.4331 22.0051C91.4787 22.7563 90.0842 23.1322 88.2494 23.133C87.3401 23.111 86.4359 22.9906 85.553 22.774C84.637 22.5986 83.7721 22.2226 83.0219 21.6737Z" fill="#4935C3"/>
<path d="M97.7869 22.7925C97.4825 22.7992 97.1798 22.744 96.8977 22.6304C96.6157 22.5169 96.3601 22.3473 96.1468 22.1322C95.9313 21.9255 95.7609 21.6773 95.6461 21.4029C95.5314 21.1285 95.4747 20.8337 95.4796 20.5368C95.4729 20.2355 95.5287 19.936 95.6434 19.6569C95.7582 19.3778 95.9295 19.1248 96.1468 18.9137C96.3601 18.6987 96.6157 18.5292 96.8978 18.4156C97.1799 18.3021 97.4825 18.2469 97.7869 18.2535C98.0894 18.2461 98.3901 18.301 98.6701 18.4146C98.95 18.5283 99.203 18.6982 99.4131 18.9137C99.6266 19.1269 99.7946 19.3805 99.9068 19.6594C100.019 19.9383 100.073 20.2367 100.066 20.5368C100.072 20.8325 100.016 21.1262 99.9041 21.4004C99.7918 21.6745 99.6248 21.9234 99.4131 22.1322C99.2031 22.3478 98.95 22.5178 98.6701 22.6314C98.3901 22.7451 98.0894 22.7999 97.7869 22.7925Z" fill="#EB0054"/>
<path d="M113.277 10.4501L112.055 13.4484C111.528 13.1939 110.979 12.9867 110.414 12.8295C109.924 12.7068 109.419 12.6464 108.913 12.6499C108.498 12.6433 108.086 12.7288 107.709 12.9002C107.331 13.0716 106.997 13.3246 106.731 13.6405C106.13 14.3465 105.818 15.249 105.854 16.1712C105.811 17.0778 106.125 17.9655 106.731 18.6469C107.005 18.9491 107.342 19.1891 107.719 19.3506C108.096 19.512 108.503 19.5911 108.913 19.5824C109.42 19.584 109.925 19.5192 110.414 19.3897C110.98 19.2298 111.529 19.018 112.055 18.7573L113.277 21.7831C112.619 22.2915 111.855 22.6485 111.04 22.8284C110.253 23.0209 109.446 23.1225 108.636 23.1312C107.314 23.1584 106.004 22.8755 104.813 22.3058C103.734 21.7781 102.842 20.9387 102.256 19.8986C101.631 18.7554 101.32 17.4704 101.352 16.1712C101.322 14.8635 101.633 13.5702 102.256 12.4163C102.842 11.3588 103.732 10.4971 104.813 9.94034C105.996 9.3437 107.309 9.04566 108.636 9.07274C109.434 9.08521 110.228 9.19575 110.999 9.40183C111.82 9.60015 112.595 9.95633 113.277 10.4501Z" fill="#4935C3"/>
<path d="M115.355 22.9406V3.82193L119.692 3.51917V22.9406H115.355Z" fill="#4935C3"/>
<path d="M151.741 11.0015C152.973 12.2117 153.589 13.9264 153.59 16.1455C153.59 18.3645 152.964 20.1026 151.713 21.3597C150.462 22.6163 148.753 23.2445 146.584 23.2445C145.338 23.2185 144.133 22.8046 143.138 22.0616L142.359 22.9418H140.135V3.82193L144.472 3.51917V9.65371C145.191 9.34265 145.967 9.18329 146.752 9.1858C148.845 9.1858 150.508 9.79103 151.741 11.0015ZM148.364 18.8003C148.895 18.0283 149.158 17.1063 149.114 16.1733C149.114 15.0731 148.864 14.2112 148.364 13.5875C148.115 13.2794 147.797 13.0339 147.434 12.8713C147.072 12.7087 146.675 12.6337 146.278 12.6523C145.625 12.6785 144.995 12.899 144.471 13.2848V19.2269C145.045 19.5898 145.708 19.7896 146.389 19.8043C146.776 19.8117 147.159 19.7238 147.504 19.5486C147.849 19.3734 148.144 19.1163 148.363 18.8003H148.364Z" fill="#4935C3"/>
<path d="M129.899 23.1554C127.822 23.1516 125.832 22.3331 124.365 20.8793C122.898 19.4255 122.073 17.4551 122.073 15.4005H123.882C123.882 16.9801 124.516 18.4949 125.644 19.6126C126.772 20.7303 128.302 21.3597 129.898 21.3627C131.494 21.3597 133.024 20.7303 134.152 19.6126C135.28 18.4949 135.913 16.9801 135.914 15.4005H137.723C137.722 17.4549 136.898 19.4251 135.431 20.8789C133.964 22.3326 131.975 23.1513 129.899 23.1554Z" fill="#EB0054"/>
</svg>
