<svg xmlns="http://www.w3.org/2000/svg" width="208" height="80" viewBox="0 0 208 80" fill="none"><path fill-rule="evenodd" clip-rule="evenodd" d="M74.3247 17.0354C74.3247 7.0603 66.8758 0 57.2246 0C47.6381 0 40.1244 7.0603 40.1244 17.0354C40.1244 27.0105 47.6381 34.1356 57.2246 34.1356C66.8758 34.1356 74.3247 27.0105 74.3247 17.0354ZM64.4792 17.0354C64.4792 22.4764 60.9814 25.0673 57.2246 25.0673C53.5325 25.0673 49.97 22.4116 49.97 17.0354C49.97 11.5944 53.5325 9.06827 57.2246 9.06827C60.9814 9.06827 64.4792 11.5944 64.4792 17.0354Z" fill="black"></path><path d="M13.7794 33.164V14.7036C13.7794 11.4649 15.8521 9.06827 19.0908 9.06827C22.6533 9.06827 24.3374 11.4649 24.3374 14.6388V33.164H34.183V12.9547C34.183 5.89437 30.5557 0.129545 22.459 0.129545C19.1555 0.129545 15.2044 1.61933 13.4555 4.66368V0.971601H3.9338V33.164H13.7794Z" fill="black"></path><path d="M111.388 0.971601L99.1456 33.164H89.2353L76.0215 0.971601H86.7091L94.158 20.9866L101.024 0.971601H111.388Z" fill="black"></path><path fill-rule="evenodd" clip-rule="evenodd" d="M147.321 17.0354C147.321 7.0603 139.872 0 130.221 0C120.635 0 113.121 7.0603 113.121 17.0354C113.121 27.0105 120.635 34.1356 130.221 34.1356C139.872 34.1356 147.321 27.0105 147.321 17.0354ZM137.476 17.0354C137.476 22.4764 133.978 25.0673 130.221 25.0673C126.529 25.0673 122.966 22.4116 122.966 17.0354C122.966 11.5944 126.529 9.06827 130.221 9.06827C133.978 9.06827 137.476 11.5944 137.476 17.0354Z" fill="black"></path><path d="M166.588 76.3462H156.742V44.1538H166.588V76.3462Z" fill="black"></path><path d="M155.9 34.3083C155.9 31.1344 158.491 28.5434 161.6 28.5434C164.839 28.5434 167.43 31.1344 167.43 34.3083C167.43 37.4822 164.839 40.0731 161.6 40.0731C158.491 40.0731 155.9 37.4822 155.9 34.3083Z" fill="black"></path><path fill-rule="evenodd" clip-rule="evenodd" d="M67.2866 64.7518L75.5128 67.0836C73.9583 72.6541 68.8412 77.3178 60.6797 77.3178C51.8058 77.3178 43.9034 70.97 43.9034 60.1529C43.9034 49.7891 51.6114 43.1822 59.9672 43.1822C69.9423 43.1822 76.0958 49.3357 76.0958 59.6994C76.0958 61.0597 75.9662 62.5495 75.9015 62.7438H53.4899C53.6842 66.3711 56.9876 68.962 60.8093 68.962C64.3718 68.962 66.3798 67.2779 67.2866 64.7518ZM53.6842 56.396H66.5741C66.4445 53.9346 64.7604 50.955 60.0968 50.955C55.9513 50.955 53.8785 53.9994 53.6842 56.396Z" fill="black"></path><path d="M92.2628 57.8858V76.3462H82.4173V44.1538H91.9389V47.8459C93.6878 44.8016 97.639 43.3118 100.942 43.3118C109.039 43.3118 112.666 49.0766 112.666 56.1369V76.3462H102.821V57.821C102.821 54.6471 101.137 52.2505 97.5742 52.2505C94.3356 52.2505 92.2628 54.6471 92.2628 57.8858Z" fill="black"></path><path d="M139.486 76.3462L151.728 44.1538H141.365L134.499 64.1688L127.05 44.1538H116.362L129.576 76.3462H139.486Z" fill="black"></path><path fill-rule="evenodd" clip-rule="evenodd" d="M207.081 60.2176C207.081 50.2425 199.632 43.1822 189.981 43.1822C180.395 43.1822 172.881 50.2425 172.881 60.2176C172.881 70.1927 180.395 77.3178 189.981 77.3178C199.632 77.3178 207.081 70.1927 207.081 60.2176ZM197.236 60.2176C197.236 65.6586 193.738 68.2495 189.981 68.2495C186.289 68.2495 182.726 65.5938 182.726 60.2176C182.726 54.7767 186.289 52.2505 189.981 52.2505C193.738 52.2505 197.236 54.7767 197.236 60.2176Z" fill="black"></path><path d="M37.5744 52.4056L23.0977 70.5158L16.4665 70.4964L4.14705 60.3955L9.41865 53.9661L19.2435 62.0216L32.4475 45.5036C29.0083 42.535 24.528 40.7397 19.6283 40.7397C8.78789 40.7397 0 49.5276 0 60.368C0 71.2085 8.78789 79.9963 19.6283 79.9963C30.4687 79.9963 39.2566 71.2085 39.2566 60.368C39.2566 57.5334 38.6557 54.8391 37.5744 52.4056Z" fill="#FEE202"></path></svg>